<svg version="1.1" xmlns="http://www.w3.org/2000/svg" xmlns:xlink="http://www.w3.org/1999/xlink" viewBox="0,0,1024,1024">
	<desc>edit icon - Licensed under Apache License v2.0 (http://www.apache.org/licenses/LICENSE-2.0) - Created with Iconfu.com - Derivative work of Material icons (Copyright Google Inc.)</desc>
	<defs>
		<filter id="filter-HhH50By3" x="-14%" y="-7%" width="153%" height="153%" color-interpolation-filters="sRGB">
			<feColorMatrix values="1 0 0 0 0 0 1 0 0 0 0 0 1 0 0 0 0 0 0.2 0" in="SourceGraphic"/>
			<feOffset dy="20"/>
			<feGaussianBlur stdDeviation="11" result="blur0"/>
			<feColorMatrix values="1 0 0 0 0 0 1 0 0 0 0 0 1 0 0 0 0 0 0.3 0" in="SourceGraphic"/>
			<feOffset dy="30"/>
			<feGaussianBlur stdDeviation="20" result="blur1"/>
			<feMerge>
				<feMergeNode in="blur0"/>
				<feMergeNode in="blur1"/>
			</feMerge>
		</filter>
	</defs>
	<g fill="none" fill-rule="nonzero" class="mix-blend-normal">
		<path d="M590.22,291.38l142.4,142.4l-419.98,419.98h-142.4v-142.4zM773.26,393.14l-142.4,-142.4l69.49,-69.49c14.81,-14.81 38.73,-14.81 53.54,0l88.86,88.86c14.81,14.81 14.81,38.73 0,53.54z" filter="url(#filter-HhH50By3)" fill="#000000"/>
		<g fill="#03b8e5">
			<path d="M590.22,291.38l142.4,142.4l-419.98,419.98h-142.4v-142.4zM773.26,393.14l-142.4,-142.4l69.49,-69.49c14.81,-14.81 38.73,-14.81 53.54,0l88.86,88.86c14.81,14.81 14.81,38.73 0,53.54z"/>
		</g>
	</g>
</svg>