<svg version="1.1" xmlns="http://www.w3.org/2000/svg" xmlns:xlink="http://www.w3.org/1999/xlink" viewBox="0,0,1024,1024">
	<g fill="none" fill-rule="nonzero" class="mix-blend-normal">
		<path d="M703.76,481h-160.17l-0.59,-0.59v-160.82l0.59,-0.59h135.05l0.54,0.4c15.18,52.11 22.91,106.82 25.17,160.98zM678.64,705h-135.05l-0.59,-0.59v-160.82l0.59,-0.59h160.17l0.59,0.61c-2.26,54.26 -9.98,108.45 -25.08,160.67l-0.09,0.32zM320.24,543h160.17l0.59,0.59v160.82l-0.59,0.59h-135.05l-0.54,-0.4c-15.18,-52.1 -22.92,-106.82 -25.17,-160.99zM345.36,319h135.05l0.59,0.59v160.82l-0.59,0.59h-160.17l-0.59,-0.62c2.26,-54.29 9.95,-108.74 25.17,-160.98zM895.69,480.35l-0.59,0.65h-128.16l-0.58,-0.56c-2.06,-53.98 -9.9,-108.51 -24.1,-160.66l0.6,-0.78h101.99l0.47,0.27c28.73,49.84 45.57,103.76 50.37,161.08zM845.32,704.73l-0.47,0.27h-101.99l-0.6,-0.78c14.22,-52.25 22.03,-106.58 24.1,-160.66l0.58,-0.56h128.16l0.59,0.65c-4.8,57.31 -21.65,111.26 -50.37,161.08zM128.31,543.65l0.59,-0.65h128.16l0.58,0.56c2.06,53.98 9.9,108.51 24.1,160.66l-0.6,0.78h-101.99l-0.47,-0.27c-28.72,-49.82 -45.57,-103.77 -50.37,-161.08zM178.68,319.27l0.47,-0.27h101.99l0.6,0.78c-14.22,52.25 -22.03,106.57 -24.1,160.66l-0.58,0.56h-128.16l-0.59,-0.65c4.8,-57.32 21.64,-111.25 50.37,-161.08zM655.64,257h-112.05l-0.59,-0.59v-123.58l0.83,-0.6c53.76,18.05 90.32,74.54 112.4,123.86zM481,132.83v123.58l-0.59,0.59h-112.05l-0.59,-0.91c22.08,-49.32 58.64,-105.81 112.4,-123.86zM543,891.17v-123.58l0.59,-0.59h112.05l0.59,0.91c-22.07,49.3 -58.63,105.81 -112.4,123.86zM368.36,767h112.05l0.59,0.59v123.58l-0.83,0.6c-53.77,-18.05 -90.33,-74.56 -112.4,-123.86zM799.34,255.82l-0.53,1.18h-77.02l-0.51,-0.35c-13.08,-32.96 -29.41,-64.62 -49.96,-93.58l0.99,-1.17c48.72,22.46 91.21,53.98 127.03,93.92zM224.66,768.18l0.53,-1.18h77.02l0.51,0.34c13.04,32.87 29.47,64.71 49.95,93.58l-0.98,1.18c-48.74,-22.47 -91.2,-53.97 -127.03,-93.92zM672.31,862.1l-0.98,-1.18c20.54,-28.95 36.87,-60.62 49.95,-93.58l0.51,-0.34h77.02l0.53,1.18c-35.83,39.94 -78.31,71.46 -127.03,93.92zM351.69,161.9l0.98,1.18c-20.54,28.95 -36.87,60.61 -49.95,93.57l-0.51,0.35h-77.02l-0.53,-1.18c35.82,-39.93 78.31,-71.46 127.03,-93.92z" visibility="hidden"/>
		<g color="currentColor" class="color-1">
			<path d="M512,64c247.42,0 448,200.58 448,448c0,247.42 -200.58,448 -448,448c-247.42,0 -448,-200.58 -448,-448c0,-247.42 200.58,-448 448,-448zM703.33,480c-2.39,-57.93 -11.2,-112.22 -25.02,-160h-134.31v160zM678.31,704c13.82,-47.78 22.63,-102.07 25.02,-160h-159.33v160zM320.67,544c2.39,57.93 11.2,112.22 25.02,160h134.31v-160zM345.69,320c-13.82,47.78 -22.63,102.07 -25.02,160h159.33v-160zM179.42,704h101.23c-13.32,-49.08 -21.7,-103.07 -23.99,-160h-127.32c4.78,57.94 22.43,112.22 50.08,160zM129.34,480h127.32c2.3,-56.93 10.67,-110.92 23.99,-160h-101.24c-27.64,47.77 -45.29,102.06 -50.07,160zM844.59,320h-101.24c13.32,49.08 21.7,103.07 23.99,160h127.32c-4.78,-57.94 -22.43,-112.23 -50.07,-160zM894.66,544h-127.32c-2.3,56.93 -10.67,110.92 -23.99,160h101.24c27.64,-47.78 45.29,-102.06 50.07,-160zM544,890.66c43.86,-14.72 82.68,-59.18 111.1,-122.66h-111.1zM368.9,768c28.42,63.49 67.24,107.94 111.1,122.66v-122.66zM655.09,256c-28.41,-63.49 -67.23,-107.94 -111.09,-122.66v122.66zM480,133.34c-43.86,14.72 -82.68,59.18 -111.09,122.66h111.09zM672.58,163.12c18.91,26.68 35.59,57.96 49.51,92.88h76.07c-34.86,-38.94 -77.54,-70.72 -125.58,-92.88zM225.84,256h76.07c13.92,-34.92 30.6,-66.2 49.5,-92.88c-48.03,22.16 -90.71,53.94 -125.57,92.88zM798.16,768h-76.07c-13.92,34.91 -30.61,66.2 -49.5,92.88c48.03,-22.16 90.71,-53.94 125.57,-92.88zM351.41,860.87c-18.9,-26.67 -35.58,-57.96 -49.5,-92.87h-76.07c34.86,38.94 77.54,70.72 125.57,92.87z" fill="currentColor"/>
		</g>
	</g>
</svg>