<svg version="1.1" xmlns="http://www.w3.org/2000/svg" xmlns:xlink="http://www.w3.org/1999/xlink" viewBox="0,0,1024,1024">
	<g fill="none" fill-rule="nonzero" class="mix-blend-normal">
		<g color="currentColor">
			<path d="M512,52.97c253.51,0 459.03,205.52 459.03,459.03c0,253.51 -205.52,459.03 -459.03,459.03c-253.51,0 -459.03,-205.52 -459.03,-459.03c0,-253.51 205.52,-459.03 459.03,-459.03zM512,88.28c-234.02,0 -423.72,189.7 -423.72,423.72c0,234.02 189.7,423.72 423.72,423.72c234.02,0 423.72,-189.7 423.72,-423.72c0,-234.02 -189.7,-423.72 -423.72,-423.72zM423.72,723.86h70.62v-282.48h-70.62v-35.31h105.94v317.79h70.62v35.31h-176.56zM503.17,264.83c24.38,0 44.14,19.76 44.14,44.14c0,24.35 -19.81,44.13 -44.14,44.13c-24.36,0 -44.14,-19.77 -44.14,-44.13c0,-24.33 19.85,-44.14 44.14,-44.14z" fill="currentColor"/>
		</g>
	</g>
</svg>