<svg version="1.1" xmlns="http://www.w3.org/2000/svg" xmlns:xlink="http://www.w3.org/1999/xlink" viewBox="0,0,1024,1024">
	<g fill="none" fill-rule="nonzero" class="mix-blend-normal">
		<g color="currentColor">
			<path d="M512,65.19c176.73,0 320,143.27 320,320v94.81h-128v-94.81c0,-106.04 -85.96,-192 -192,-192c-106.04,0 -192,85.96 -192,192v94.81h-128v-94.81c0,-176.73 143.27,-320 320,-320z" fill="currentColor"/>
		</g>
		<path d="M553.37,722.13l23.69,142.16l-0.6,0.71h-128.92l-0.6,-0.71l23.69,-142.16c-14.98,-12.37 -23.63,-30.65 -23.63,-50.13c0,-35.9 29.1,-65 65,-65c35.9,0 65,29.1 65,65c0,19.48 -8.65,37.76 -23.63,50.13z" visibility="hidden"/>
		<g color="currentColor">
			<path d="M192,512h640c35.25,0 64,28.75 64,64v320c0,35.25 -28.75,64 -64,64h-640c-35.25,0 -64,-28.75 -64,-64v-320c0,-35.25 28.75,-64 64,-64zM512,608c-35.34,0 -64,28.65 -64,64c0,20.08 9.25,37.99 23.71,49.72l-23.71,142.28h128l-23.71,-142.28c14.46,-11.73 23.71,-29.64 23.71,-49.72c0,-35.35 -28.65,-64 -64,-64z" fill="currentColor"/>
		</g>
	</g>
</svg>