<svg version="1.1" xmlns="http://www.w3.org/2000/svg" xmlns:xlink="http://www.w3.org/1999/xlink" viewBox="0,0,1024,1024">
	<g fill="none" fill-rule="nonzero" class="mix-blend-normal">
		<path d="M512.58,159l384.57,673l-0.57,1h-769.16l-0.57,-1l384.57,-673zM480,385c-17.07,0 -31,13.93 -31,31v80.24c0,10.66 1.21,20.46 3.79,30.8l25.15,100.6c1.69,6.77 7.57,11.36 14.55,11.36h39.02c6.98,0 12.86,-4.59 14.55,-11.36l25.15,-100.6c2.59,-10.34 3.79,-20.14 3.79,-30.8v-80.24c0,-17.07 -13.93,-31 -31,-31zM512,673c-34.79,0 -63,28.2 -63,63c0,34.79 28.21,63 63,63c34.8,0 63,-28.21 63,-63c0,-34.8 -28.2,-63 -63,-63z" visibility="hidden"/>
		<g color="currentColor">
			<path d="M568.03,128.2l384.56,671.21c11.73,20.48 11.73,43.92 0,64.39c-11.73,20.48 -31.88,32.2 -55.34,32.2h-769.11c-23.46,0 -43.61,-11.72 -55.34,-32.2c-11.73,-20.47 -11.73,-43.91 0,-64.39l384.56,-671.21c11.73,-20.48 31.87,-32.2 55.33,-32.2c23.47,0 43.61,11.72 55.34,32.2zM512,160l-384,672h768z" fill="currentColor"/>
		</g>
		<g color="currentColor">
			<path d="M480,384h64c17.63,0 32,14.37 32,32v80.24c0,11 -1.15,20.38 -3.82,31.05l-25.15,100.59c-1.8,7.22 -8.08,12.12 -15.52,12.12h-39.02c-7.44,0 -13.72,-4.9 -15.52,-12.12l-25.15,-100.59c-2.66,-10.67 -3.82,-20.05 -3.82,-31.05v-80.24c0,-17.63 14.38,-32 32,-32zM512,672c35.35,0 64,28.65 64,64c0,35.34 -28.65,64 -64,64c-35.34,0 -64,-28.66 -64,-64c0,-35.35 28.66,-64 64,-64z" fill="currentColor"/>
		</g>
	</g>
</svg>