<svg version="1.1" xmlns="http://www.w3.org/2000/svg" viewBox="0,0,48,48">
<path fill="currentColor" fill-rule="evenodd" clip-rule="evenodd" d="M17.9918 4C19.4964 2.72595 21.6783 2 24 2C26.3217 2 28.5036 2.72595 30.0082 4H32C34.2091 4 36 5.79086 36 8H38C40.2091 8 42 9.79086 42 12V42C42 44.2091 40.2091 46 38 46H10C7.79086 46 6 44.2091 6 42V12C6 9.79086 7.79086 8 10 8H12C12 5.79086 13.7909 4 16 4H17.9918ZM32 14C33.4806 14 34.7733 13.1956 35.4649 12H38V42H10V12H12.5351C13.2267 13.1956 14.5194 14 16 14H32ZM16 32V28H28V32H16ZM16 20V24H32V20H16ZM19.7152 8L20.3133 7.31075C20.9704 6.55348 22.3788 6 24 6C25.6212 6 27.0296 6.55348 27.6867 7.31075L28.2848 8H32V10H16V8H18.8027H19.7152Z"/>
</svg>