<svg version="1.1" xmlns="http://www.w3.org/2000/svg" xmlns:xlink="http://www.w3.org/1999/xlink" viewBox="0,0,1024,1024">
	<!-- Color names: color-1 -->
	<desc>sign_forbidden icon - Licensed under Iconfu Standard License v1.0 (https://www.iconfu.com/iconfu_standard_license) - Incors GmbH</desc>
	<g fill="none" fill-rule="nonzero" class="mix-blend-normal">
		<g color="currentColor" class="color-1">
			<path d="M512,52.97c253.51,0 459.03,205.52 459.03,459.03c0,253.51 -205.52,459.03 -459.03,459.03c-253.51,0 -459.03,-205.52 -459.03,-459.03c0,-253.51 205.52,-459.03 459.03,-459.03zM512,88.28c-234.02,0 -423.72,189.7 -423.72,423.72c0,234.02 189.7,423.72 423.72,423.72c234.02,0 423.72,-189.7 423.72,-423.72c0,-234.02 -189.7,-423.72 -423.72,-423.72zM798.95,304.87c50.51,69.54 72.5,153.33 65.99,235.27c-13.74,172.81 -151.02,310.09 -323.81,323.83c-81.94,6.5 -165.75,-15.5 -235.29,-65.99l-16.74,-12.17l497.69,-497.68zM484.83,160.04c81.94,-6.51 165.73,15.49 235.29,65.98l16.74,12.17l-497.7,497.68l-12.15,-16.74c-50.51,-69.54 -72.5,-153.33 -65.99,-235.27c13.74,-172.79 151.02,-310.08 323.81,-323.82zM829.78,537.39c5.33,-67.14 -10.58,-135.67 -47.73,-194.6l-438.29,438.29c58.95,37.15 127.46,53.05 194.6,47.72c155.42,-12.36 279.06,-136.01 291.42,-291.41zM196.18,486.61c-5.33,67.14 10.58,135.67 47.71,194.6l438.31,-438.29c-58.95,-37.15 -127.46,-53.04 -194.6,-47.71c-155.42,12.34 -279.06,136 -291.42,291.4z" fill="currentColor"/>
		</g>
	</g>
</svg>