<svg version="1.1" xmlns="http://www.w3.org/2000/svg" xmlns:xlink="http://www.w3.org/1999/xlink" viewBox="0,0,1024,1024">
	<!-- Color names: color-1 -->
	<desc>clipboard_check_edit icon - Licensed under Iconfu Standard License v1.0 (https://www.iconfu.com/iconfu_standard_license) - Incors GmbH</desc>
	<g fill="none" fill-rule="nonzero" class="mix-blend-normal">
		<g color="currentColor" class="color-1">
			<path d="M264.83,123.59v35.31h-52.97c-9.78,0 -17.65,7.87 -17.65,17.65v741.52c0,9.78 7.87,17.65 17.65,17.65h600.28c9.8,0 17.65,-7.87 17.65,-17.65v-281.25l35.31,-35.31v316.56c0,29.11 -23.85,52.96 -52.96,52.96h-600.28c-29.11,0 -52.96,-23.85 -52.96,-52.96v-741.52c0,-29.11 23.85,-52.96 52.96,-52.96zM264.83,194.21c0,211.86 0,423.72 0,635.58h494.34v-122.35l35.31,-35.31v192.97h-564.96v-670.89zM930.55,411.24c6.89,6.89 6.89,18.08 0,24.97l-282.48,282.48c-0.02,-0.02 -5.72,3.76 -6.34,4.01l-141.24,52.96c-3.83,1.41 -8.16,1.52 -12.29,0c-9.09,-3.39 -13.72,-13.52 -10.33,-22.63l52.44,-139.85c0.78,-2.82 2.3,-5.51 4.52,-7.73l282.48,-282.48c6.89,-6.89 18.08,-6.89 24.97,0zM893.1,423.72l-63.31,-63.31l-267.4,267.41l-38,101.3l101.31,-37.99zM406.07,70.62c0,-29.11 23.85,-52.96 52.96,-52.96h105.94c29.11,0 52.96,23.85 52.96,52.96h105.93v194.21h-423.72v-194.21zM383.24,428.9l93.45,93.45l199.38,-199.38l24.96,24.96l-224.34,224.34l-118.41,-118.41zM335.45,105.93v123.59h353.1v-123.59h-105.93v-35.31c0,-9.78 -7.85,-17.65 -17.65,-17.65h-105.94c-9.78,0 -17.65,7.87 -17.65,17.65v35.31zM829.79,176.55c0,-9.78 -7.85,-17.65 -17.65,-17.65h-52.97v-35.31h52.97c29.11,0 52.96,23.85 52.96,52.96v77.98c-11.23,-4.91 -23.27,-7.34 -35.31,-7.34zM759.17,281.25c0,-29.03 0,-58.03 0,-87.04h35.31v60.31c-9.83,4.29 -19.05,10.47 -27.1,18.52z" fill="currentColor"/>
		</g>
	</g>
</svg>